<svg width="576" height="512" xmlns="http://www.w3.org/2000/svg">
 <title/>

 <g>
  <title>background</title>
  <rect fill="none" id="canvas_background" height="402" width="582" y="-1" x="-1"/>
 </g>
 <g>
  <title>Layer 1</title>
  <g id="icomoon-ignore"/>
  <path stroke="null" id="svg_1" d="m528,139.999996l-416.000007,0c-14.3,0 -26,11.85 -26,26.333334l0,263.333337c0,14.483334 11.7,26.333334 26,26.333334l416.000007,0c14.3,0 26,-11.85 26,-26.333334l0,-263.333337c0,-14.483334 -11.7,-26.333334 -26,-26.333334zm-182.000003,52.666667l52.000001,0l0,52.666667l-52.000001,0l0,-52.666667zm78.000001,79.000001l0,52.666667l-52.000001,0l0,-52.666667l52.000001,0zm-156.000003,-79.000001l52.000001,0l0,52.666667l-52.000001,0l0,-52.666667zm78.000001,79.000001l0,52.666667l-52.000001,0l0,-52.666667l52.000001,0zm-156.000003,-79.000001l52.000001,0l0,52.666667l-52.000001,0l0,-52.666667zm78.000001,79.000001l0,52.666667l-52.000001,0l0,-52.666667l52.000001,0zm-130.000002,-79.000001l26,0l0,52.666667l-26,0l0,-52.666667zm0,79.000001l52.000001,0l0,52.666667l-52.000001,0l0,-52.666667zm26,131.666668l-26,0l0,-52.666667l26,0l0,52.666667zm234.000004,0l-208.000004,0l0,-52.666667l208.000004,0l0,52.666667zm104.000002,0l-78.000001,0l0,-52.666667l78.000001,0l0,52.666667zm0,-79.000001l-52.000001,0l0,-52.666667l52.000001,0l0,52.666667zm0,-79.000001l-78.000001,0l0,-52.666667l78.000001,0l0,52.666667z"/>
  <path stroke="null" id="svg_3" d="m464,49l-416.00001,0c-14.3,0 -26,11.85 -26,26.33333l0,263.33334c0,14.48333 11.7,26.33333 26,26.33333l416.00001,0c14.3,0 26,-11.85 26,-26.33333l0,-263.33334c0,-14.48333 -11.7,-26.33333 -26,-26.33333zm-182,52.66666l52,0l0,52.66667l-52,0l0,-52.66667zm78,79l0,52.66667l-52,0l0,-52.66667l52,0zm-156,-79l52,0l0,52.66667l-52,0l0,-52.66667zm78,79l0,52.66667l-52,0l0,-52.66667l52,0zm-156.00001,-79l52,0l0,52.66667l-52,0l0,-52.66667zm78.00001,79l0,52.66667l-52.00001,0l0,-52.66667l52.00001,0zm-130.00001,-79l26,0l0,52.66667l-26,0l0,-52.66667zm0,79l52,0l0,52.66667l-52,0l0,-52.66667zm26,131.66667l-26,0l0,-52.66666l26,0l0,52.66666zm234.00001,0l-208.00001,0l0,-52.66666l208.00001,0l0,52.66666zm104,0l-78,0l0,-52.66666l78,0l0,52.66666zm0,-79l-52,0l0,-52.66667l52,0l0,52.66667zm0,-79l-78,0l0,-52.66667l78,0l0,52.66667z"/>
 </g>
</svg>